Coordinates
version=1
nRows=10
nColumns=34
inDegrees=yes

Units are S.I. units (second, meters, Newtons, ...)
If the header above contains a line with 'inDegrees', this indicates whether rotational values are in degrees (yes) or radians (no).

endheader
time	pelvis_tilt	pelvis_list	pelvis_rotation	pelvis_tx	pelvis_ty	pelvis_tz	hip_flexion_r	hip_adduction_r	hip_rotation_r	knee_angle_r	ankle_angle_r	subtalar_angle_r	mtp_angle_r	hip_flexion_l	hip_adduction_l	hip_rotation_l	knee_angle_l	ankle_angle_l	subtalar_angle_l	mtp_angle_l	lumbar_extension	lumbar_bending	lumbar_rotation	arm_flex_r	arm_add_r	arm_rot_r	elbow_flex_r	pro_sup_r	arm_flex_l	arm_add_l	arm_rot_l	elbow_flex_l	pro_sup_l
     10.20000000	     21.76392131	     -2.60783456	      6.65216710	     -8.76890493	      1.04048727	     -1.90373616	    -17.85258902	     -2.10244451	    -20.11009189	      4.84242251	     -3.42520904	     -1.38708381	      0.00000000	    -27.64998136	     -4.05020419	    -39.99999995	      0.00000000	     -6.07504832	    -35.00000000	      0.00000000	    -40.74077695	     -2.39272644	     -8.06322904	    -35.82004645	    -17.09335298	     13.70348652	     98.07334883	    112.73998315	    -10.77566319	    -21.23956016	     14.21938542	    109.21212873	    109.65715151
     10.21666670	     21.59548272	     -2.54977812	      6.77025382	     -8.76728353	      1.03641981	     -1.89453833	    -18.66734162	     -1.17272417	    -20.92622028	      3.30640215	     -2.87618416	     -0.15419788	      0.00000000	    -27.76992661	     -4.64926262	    -39.99999995	      0.00000000	     -6.85802173	    -35.00000000	      0.00000000	    -40.37477899	     -2.77098529	     -8.50256280	    -35.14218114	    -17.11445196	     14.55076779	     97.01124586	    112.84277482	    -10.31922297	    -21.23696157	     14.10774154	    108.82405277	    109.58620177
     10.23333330	     21.09914245	     -2.45884813	      6.87743950	     -8.76365144	      1.03253060	     -1.88471777	    -18.92130618	     -0.32954034	    -20.80391456	      1.96491412	     -2.26707556	     -0.03813338	      0.00000000	    -27.46546779	     -5.18906290	    -39.99999995	      0.00000000	     -6.95822453	    -35.00000000	      0.00000000	    -40.07593582	     -2.95984053	     -8.70537707	    -35.13499124	    -17.10832197	     14.77713630	     97.07381646	    112.85251796	     -9.83271786	    -21.27167356	     13.97617522	    109.08884715	    109.55550632
     10.25000000	     20.63181019	     -2.43573931	      7.01313328	     -8.75900707	      1.03143229	     -1.87512168	    -19.09157010	      0.56017721	    -20.70804251	      0.77070601	     -1.72534381	      0.16280505	      0.00000000	    -27.16888197	     -5.84389424	    -39.99999995	      0.00000000	     -7.27142061	    -35.00000000	      0.00000000	    -39.84843466	     -3.14987501	     -8.76824702	    -35.03668798	    -17.20043713	     15.01021803	     97.16279643	    112.85689913	     -9.37290832	    -21.24139533	     13.92080747	    109.35473256	    109.51702128
     10.26666670	     20.20643657	     -2.53141006	      7.06347824	     -8.75547426	      1.03310929	     -1.86662935	    -19.05431213	      1.42520964	    -20.82306938	      0.00000000	     -1.16134218	      0.98415431	      0.00000000	    -26.88209104	     -6.55779700	    -39.99999995	      0.00000000	     -8.29514292	    -35.00000000	      0.00000000	    -39.73193526	     -3.20152479	     -8.85930504	    -34.69766607	    -17.52595209	     15.46735725	     97.29236810	    112.81915734	     -8.89297416	    -21.13558152	     14.12198043	    109.35536284	    109.38445587
     10.28333330	     19.95492906	     -2.53136101	      6.93534341	     -8.75297768	      1.03561758	     -1.85888560	    -18.80822300	      1.94629628	    -20.83599129	      0.00000000	     -0.79246617	      1.08547637	      0.00000000	    -26.71399790	     -7.02453428	    -39.99999995	      0.00000000	     -8.47564625	    -35.00000000	      0.00000000	    -39.87126084	     -3.29093889	     -9.34407111	    -34.21727347	    -17.55574052	     15.24594754	     97.47641035	    112.77559445	     -8.25827527	    -20.97438888	     14.07696087	    109.26548070	    109.33562888
     10.30000000	     19.77122647	     -2.64780971	      6.65328326	     -8.74861853	      1.03484378	     -1.85072163	    -18.62540749	      2.51117770	    -20.79090260	      0.00000000	     -0.27739345	      1.23278835	      0.00000000	    -26.61125864	     -7.50654718	    -39.99999995	      0.00000000	     -8.90649110	    -35.00000000	      0.00000000	    -39.87849550	     -3.25347084	     -9.80500451	    -33.82976470	    -17.60355973	     14.87119948	     97.75035383	    112.70583076	     -7.85591157	    -20.81616272	     14.08568402	    109.01707329	    109.27675071
     10.31666670	     19.58855096	     -2.70854648	      6.28325873	     -8.74157935	      1.03060241	     -1.84193269	    -18.53883296	      2.96227390	    -20.80241351	      0.00000000	      0.76839183	      2.00747158	      0.00000000	    -26.56278090	     -7.89860305	    -39.99999995	      0.00000000	     -9.59153260	    -35.00000000	      0.00000000	    -39.55976612	     -3.20628813	    -10.07850133	    -34.22791983	    -17.67461907	     14.05543230	     99.02934992	    112.45520099	     -7.81745893	    -20.71627559	     14.19379929	    108.56973857	    109.04648654
     10.33333330	     19.84331995	     -2.79667352	      6.06952765	     -8.73428519	      1.02486724	     -1.83346016	    -18.98706160	      3.51400918	    -21.00602497	      0.00000000	      1.76074217	      2.96042224	      0.00000000	    -26.97916837	     -8.45113996	    -39.99999995	      0.00000000	     -9.63314356	    -35.00000000	      0.00000000	    -39.89384505	     -2.92593469	     -9.83787769	    -34.98657877	    -17.83435285	     12.80243403	    101.07945412	    112.03173927	     -7.26979268	    -20.75727612	     14.83780696	    108.98218415	    108.58455193
     10.35000000	     19.77070760	     -2.86849538	      5.77390031	     -8.72706002	      1.01985721	     -1.82544661	    -19.23869389	      4.01324919	    -20.30195220	      0.00000000	      3.01023500	      3.05570673	      0.00000000	    -27.16528871	     -8.97927610	    -39.99999995	      0.00000000	     -9.73944023	    -35.00000000	      0.00000000	    -39.54373080	     -2.99487501	     -9.64099429	    -35.38225485	    -18.31247497	     12.52065267	    101.76371291	    111.96856777	     -7.76311026	    -20.77110865	     15.33713056	    109.34412669	    108.52788336
